<?xml version="1.0" encoding="UTF-8"?>
<!DOCTYPE svg PUBLIC "-//W3C//DTD SVG 1.1//EN" "http://www.w3.org/Graphics/SVG/1.1/DTD/svg11.dtd">
<svg xmlns="http://www.w3.org/2000/svg" version="1.1" width="500px" height="500px" style="shape-rendering:geometricPrecision; text-rendering:geometricPrecision; image-rendering:optimizeQuality; fill-rule:evenodd; clip-rule:evenodd" xmlns:xlink="http://www.w3.org/1999/xlink">
<g><path style="opacity:1" fill="#000000" d="M -0.5,-0.5 C 166.167,-0.5 332.833,-0.5 499.5,-0.5C 499.5,166.167 499.5,332.833 499.5,499.5C 332.833,499.5 166.167,499.5 -0.5,499.5C -0.5,332.833 -0.5,166.167 -0.5,-0.5 Z"/></g>
<g><path style="opacity:1" fill="#56f7d8" d="M 309.5,193.5 C 266.179,191.505 222.513,190.839 178.5,191.5C 177.414,191.62 176.747,192.287 176.5,193.5C 175.337,199.329 173.337,204.829 170.5,210C 194.667,235.5 218.833,261 243,286.5C 248.77,295.406 248.937,304.406 243.5,313.5C 242.761,313.631 242.094,313.464 241.5,313C 229.911,301.243 218.245,289.743 206.5,278.5C 182.294,252.957 157.627,227.624 132.5,202.5C 131.479,203.002 131.312,203.668 132,204.5C 156.422,229.754 180.922,254.754 205.5,279.5C 216.798,291.298 228.298,302.965 240,314.5C 240.483,315.448 240.649,316.448 240.5,317.5C 236.865,320.659 233.198,323.826 229.5,327C 221.978,331.17 214.312,331.504 206.5,328C 174.826,296.326 143.826,263.993 113.5,231C 97.5,230.667 81.5,230.333 65.5,230C 54.856,224.351 47.356,215.851 43,204.5C 39.9845,196.756 37.9845,188.756 37,180.5C 34.0796,158.753 37.4129,138.087 47,118.5C 51.6973,110.134 58.5307,104.301 67.5,101C 94.5,100.333 121.5,100.333 148.5,101C 155.101,103.22 160.601,107.053 165,112.5C 169.721,119.276 173.388,126.609 176,134.5C 220.766,133.836 265.6,133.169 310.5,132.5C 313.967,122.211 319.634,113.377 327.5,106C 330.339,104.08 333.339,102.413 336.5,101C 364.882,100.034 393.215,100.367 421.5,102C 428.948,105.782 434.782,111.282 439,118.5C 448.841,138.043 452.174,158.71 449,180.5C 447.487,197.058 441.32,211.558 430.5,224C 427.282,226.777 423.615,228.777 419.5,230C 391.5,230.667 363.5,230.667 335.5,230C 328.726,227.033 323.226,222.533 319,216.5C 314.716,209.269 311.549,201.602 309.5,193.5 Z"/></g>
<g><path style="opacity:1" fill="#19332d" d="M 377.5,125.5 C 387.167,126.167 396.833,126.833 406.5,127.5C 383.833,127.5 361.167,127.5 338.5,127.5C 338.5,133.167 338.5,138.833 338.5,144.5C 337.521,141.375 337.187,138.042 337.5,134.5C 337.5,131.5 337.5,128.5 337.5,125.5C 350.833,125.5 364.167,125.5 377.5,125.5 Z"/></g>
<g><path style="opacity:1" fill="#3e9485" d="M 143.5,127.5 C 118.5,127.5 93.5,127.5 68.5,127.5C 67.8333,127.833 67.1667,128.167 66.5,128.5C 78.9822,127.167 91.8155,126.501 105,126.5C 118.004,126.5 130.838,126.833 143.5,127.5 Z"/></g>
<g><path style="opacity:1" fill="#182d28" d="M 68.5,127.5 C 93.5,127.5 118.5,127.5 143.5,127.5C 143.833,128.167 144.167,128.833 144.5,129.5C 144.5,130.167 144.167,130.5 143.5,130.5C 140.359,129.679 137.025,129.179 133.5,129C 117.503,128.5 101.503,128.333 85.5,128.5C 79.642,128.822 73.9753,128.489 68.5,127.5 Z"/></g>
<g><path style="opacity:1" fill="#3d9685" d="M 85.5,129.5 C 85.5,129.167 85.5,128.833 85.5,128.5C 101.503,128.333 117.503,128.5 133.5,129C 137.025,129.179 140.359,129.679 143.5,130.5C 124.174,129.825 104.841,129.492 85.5,129.5 Z"/></g>
<g><path style="opacity:1" fill="#26554c" d="M 68.5,127.5 C 73.9753,128.489 79.642,128.822 85.5,128.5C 85.5,128.833 85.5,129.167 85.5,129.5C 79.4632,129.171 73.4632,129.504 67.5,130.5C 67.1924,131.308 66.6924,131.975 66,132.5C 65.5012,136.486 65.3345,140.486 65.5,144.5C 64.8333,144.833 64.1667,145.167 63.5,145.5C 63.3342,140.821 63.5008,136.155 64,131.5C 64.3768,130.058 65.2101,129.058 66.5,128.5C 67.1667,128.167 67.8333,127.833 68.5,127.5 Z"/></g>
<g><path style="opacity:1" fill="#56f8d8" d="M 85.5,129.5 C 104.841,129.492 124.174,129.825 143.5,130.5C 145.405,137.219 146.071,144.219 145.5,151.5C 144.833,151.833 144.167,152.167 143.5,152.5C 142.25,152.577 141.417,153.244 141,154.5C 140.502,157.817 140.335,161.15 140.5,164.5C 117.167,164.5 93.8333,164.5 70.5,164.5C 70.7947,162.265 70.4614,160.265 69.5,158.5C 69.9077,155.401 68.741,153.067 66,151.5C 65.5034,149.19 65.3367,146.857 65.5,144.5C 65.3345,140.486 65.5012,136.486 66,132.5C 66.6924,131.975 67.1924,131.308 67.5,130.5C 73.4632,129.504 79.4632,129.171 85.5,129.5 Z"/></g>
<g><path style="opacity:1" fill="#57f3d6" d="M 406.5,127.5 C 408.477,138.116 409.144,149.116 408.5,160.5C 408.5,175.833 408.5,191.167 408.5,206.5C 385.167,206.5 361.833,206.5 338.5,206.5C 338.5,190.833 338.5,175.167 338.5,159.5C 338.5,154.5 338.5,149.5 338.5,144.5C 338.5,138.833 338.5,133.167 338.5,127.5C 361.167,127.5 383.833,127.5 406.5,127.5 Z"/></g>
<g><path style="opacity:1" fill="#26554c" d="M 352.5,131.5 C 366.837,131.333 381.171,131.5 395.5,132C 388.321,132.171 381.321,132.671 374.5,133.5C 374.5,156.5 374.5,179.5 374.5,202.5C 374.167,202.5 373.833,202.5 373.5,202.5C 373.5,179.167 373.5,155.833 373.5,132.5C 366.313,132.825 359.313,132.491 352.5,131.5 Z"/></g>
<g><path style="opacity:1" fill="#3c9585" d="M 352.5,131.5 C 360.66,130.834 368.993,130.5 377.5,130.5C 386.194,130.502 394.528,131.169 402.5,132.5C 401.833,132.5 401.5,132.833 401.5,133.5C 401.167,133.5 400.833,133.5 400.5,133.5C 392.167,133.5 383.833,133.5 375.5,133.5C 375.167,133.5 374.833,133.5 374.5,133.5C 381.321,132.671 388.321,132.171 395.5,132C 381.171,131.5 366.837,131.333 352.5,131.5 Z"/></g>
<g><path style="opacity:1" fill="#31776b" d="M 144.5,129.5 C 145.5,129.833 146.167,130.5 146.5,131.5C 146.824,138.354 146.491,145.021 145.5,151.5C 146.071,144.219 145.405,137.219 143.5,130.5C 144.167,130.5 144.5,130.167 144.5,129.5 Z"/></g>
<g><path style="opacity:1" fill="#56f4d5" d="M 143.5,169.5 C 143.996,164.112 144.996,158.779 146.5,153.5C 147.167,153.5 147.5,153.167 147.5,152.5C 151.383,152.109 155.05,152.776 158.5,154.5C 159.666,166.152 159.833,177.819 159,189.5C 158.5,190 158,190.5 157.5,191C 133.836,191.5 110.169,191.667 86.5,191.5C 75.4187,191.81 64.4187,191.477 53.5,190.5C 52.522,178.914 52.1887,167.247 52.5,155.5C 54.4564,153.452 56.9564,152.452 60,152.5C 62.1454,152.396 63.9788,153.063 65.5,154.5C 66.3322,163.466 66.9988,172.466 67.5,181.5C 92.8333,181.5 118.167,181.5 143.5,181.5C 143.5,177.5 143.5,173.5 143.5,169.5 Z"/></g>
<g><path style="opacity:1" fill="#4ab4a1" d="M 146.5,153.5 C 144.996,158.779 143.996,164.112 143.5,169.5C 143.334,164.821 143.501,160.155 144,155.5C 144.708,154.619 145.542,153.953 146.5,153.5 Z"/></g>
<g><path style="opacity:1" fill="#50c9b5" d="M 374.5,133.5 C 374.833,133.5 375.167,133.5 375.5,133.5C 375.5,156.167 375.5,178.833 375.5,201.5C 383.833,201.5 392.167,201.5 400.5,201.5C 400.5,178.833 400.5,156.167 400.5,133.5C 400.833,133.5 401.167,133.5 401.5,133.5C 401.5,156.5 401.5,179.5 401.5,202.5C 392.5,202.5 383.5,202.5 374.5,202.5C 374.5,179.5 374.5,156.5 374.5,133.5 Z"/></g>
<g><path style="opacity:1" fill="#56f7d8" d="M 375.5,133.5 C 383.833,133.5 392.167,133.5 400.5,133.5C 400.5,156.167 400.5,178.833 400.5,201.5C 392.167,201.5 383.833,201.5 375.5,201.5C 375.5,178.833 375.5,156.167 375.5,133.5 Z"/></g>
<g><path style="opacity:1" fill="#3f9f8d" d="M 337.5,134.5 C 337.187,138.042 337.521,141.375 338.5,144.5C 338.5,149.5 338.5,154.5 338.5,159.5C 338.167,159.5 337.833,159.5 337.5,159.5C 336.487,172.806 336.153,189.473 336.5,209.5C 335.834,199.839 335.5,190.006 335.5,180C 335.346,164.639 336.013,149.472 337.5,134.5 Z"/></g>
<g><path style="opacity:1" fill="#42a190" d="M 352.5,131.5 C 359.313,132.491 366.313,132.825 373.5,132.5C 373.5,155.833 373.5,179.167 373.5,202.5C 363.652,202.173 353.986,202.506 344.5,203.5C 343.167,179.833 343.167,156.167 344.5,132.5C 346.948,131.527 349.615,131.194 352.5,131.5 Z"/></g>
<g><path style="opacity:1" fill="#255d53" d="M 344.5,132.5 C 345.492,132.328 346.158,132.662 346.5,133.5C 346.5,142.5 346.5,151.5 346.5,160.5C 344.528,151.56 343.861,142.227 344.5,132.5 Z"/></g>
<g><path style="opacity:1" fill="#57f7d8" d="M 346.5,133.5 C 355.167,133.5 363.833,133.5 372.5,133.5C 372.5,156.167 372.5,178.833 372.5,201.5C 363.833,201.5 355.167,201.5 346.5,201.5C 346.5,187.833 346.5,174.167 346.5,160.5C 346.5,151.5 346.5,142.5 346.5,133.5 Z"/></g>
<g><path style="opacity:1" fill="#358072" d="M 197.5,170.5 C 202.305,169.513 207.305,169.179 212.5,169.5C 225.011,169.171 237.345,169.505 249.5,170.5C 238.346,171.495 227.012,171.828 215.5,171.5C 209.69,170.51 203.69,170.177 197.5,170.5 Z"/></g>
<g><path style="opacity:1" fill="#3a897b" d="M 212.5,169.5 C 246.664,168.336 280.998,168.169 315.5,169C 293.521,170.304 271.521,170.804 249.5,170.5C 237.345,169.505 225.011,169.171 212.5,169.5 Z"/></g>
<g><path style="opacity:1" fill="#348677" d="M 52.5,155.5 C 52.1887,167.247 52.522,178.914 53.5,190.5C 52.5084,190.328 51.8417,190.662 51.5,191.5C 50.0937,191.027 49.427,190.027 49.5,188.5C 50.1174,188.611 50.6174,188.944 51,189.5C 51.1694,177.993 51.6694,166.659 52.5,155.5 Z"/></g>
<g><path style="opacity:1" fill="#1e3e37" d="M 146.5,131.5 C 148.453,137.074 149.12,143.074 148.5,149.5C 149.263,150.268 150.263,150.768 151.5,151C 149.942,151.21 148.609,151.71 147.5,152.5C 147.5,153.167 147.167,153.5 146.5,153.5C 145.542,153.953 144.708,154.619 144,155.5C 143.501,160.155 143.334,164.821 143.5,169.5C 143.5,173.5 143.5,177.5 143.5,181.5C 118.167,181.5 92.8333,181.5 67.5,181.5C 66.9988,172.466 66.3322,163.466 65.5,154.5C 63.9788,153.063 62.1454,152.396 60,152.5C 56.9564,152.452 54.4564,153.452 52.5,155.5C 51.6694,166.659 51.1694,177.993 51,189.5C 50.6174,188.944 50.1174,188.611 49.5,188.5C 49.3335,177.162 49.5001,165.828 50,154.5C 53.503,150.328 58.003,148.328 63.5,148.5C 63.5,147.5 63.5,146.5 63.5,145.5C 64.1667,145.167 64.8333,144.833 65.5,144.5C 65.3367,146.857 65.5034,149.19 66,151.5C 68.741,153.067 69.9077,155.401 69.5,158.5C 69.5,160.833 69.5,163.167 69.5,165.5C 69.8333,166.167 70.1667,166.833 70.5,167.5C 69.6403,171.434 69.307,175.434 69.5,179.5C 93.8333,179.5 118.167,179.5 142.5,179.5C 142.884,175.511 142.217,171.845 140.5,168.5C 140.389,167.883 140.056,167.383 139.5,167C 140.416,166.722 141.082,166.222 141.5,165.5C 142.283,161.307 142.949,156.973 143.5,152.5C 144.167,152.167 144.833,151.833 145.5,151.5C 146.491,145.021 146.824,138.354 146.5,131.5 Z"/></g>
<g><path style="opacity:1" fill="#51d7be" d="M 70.5,167.5 C 86.6754,167.17 102.675,167.504 118.5,168.5C 102.833,168.5 87.1667,168.5 71.5,168.5C 71.7839,171.777 71.4505,174.943 70.5,178C 93.831,178.5 117.164,178.667 140.5,178.5C 140.5,175.167 140.5,171.833 140.5,168.5C 142.217,171.845 142.884,175.511 142.5,179.5C 118.167,179.5 93.8333,179.5 69.5,179.5C 69.307,175.434 69.6403,171.434 70.5,167.5 Z"/></g>
<g><path style="opacity:1" fill="#57f9da" d="M 118.5,168.5 C 125.833,168.5 133.167,168.5 140.5,168.5C 140.5,171.833 140.5,175.167 140.5,178.5C 117.164,178.667 93.831,178.5 70.5,178C 71.4505,174.943 71.7839,171.777 71.5,168.5C 87.1667,168.5 102.833,168.5 118.5,168.5 Z"/></g>
<g><path style="opacity:1" fill="#3e9282" d="M 69.5,165.5 C 93.5,165.5 117.5,165.5 141.5,165.5C 141.082,166.222 140.416,166.722 139.5,167C 140.056,167.383 140.389,167.883 140.5,168.5C 133.167,168.5 125.833,168.5 118.5,168.5C 102.675,167.504 86.6754,167.17 70.5,167.5C 70.1667,166.833 69.8333,166.167 69.5,165.5 Z"/></g>
<g><path style="opacity:1" fill="#54d8c0" d="M 143.5,152.5 C 142.949,156.973 142.283,161.307 141.5,165.5C 117.5,165.5 93.5,165.5 69.5,165.5C 69.5,163.167 69.5,160.833 69.5,158.5C 70.4614,160.265 70.7947,162.265 70.5,164.5C 93.8333,164.5 117.167,164.5 140.5,164.5C 140.335,161.15 140.502,157.817 141,154.5C 141.417,153.244 142.25,152.577 143.5,152.5 Z"/></g>
<g><path style="opacity:1" fill="#296156" d="M 148.5,149.5 C 162.279,150.295 166.946,157.295 162.5,170.5C 174.167,170.5 185.833,170.5 197.5,170.5C 203.69,170.177 209.69,170.51 215.5,171.5C 198.008,172.497 180.341,172.83 162.5,172.5C 162.789,178.245 162.289,183.912 161,189.5C 160.208,191.644 158.708,192.977 156.5,193.5C 133.167,192.833 109.833,192.167 86.5,191.5C 110.169,191.667 133.836,191.5 157.5,191C 158,190.5 158.5,190 159,189.5C 159.833,177.819 159.666,166.152 158.5,154.5C 155.05,152.776 151.383,152.109 147.5,152.5C 148.609,151.71 149.942,151.21 151.5,151C 150.263,150.768 149.263,150.268 148.5,149.5 Z"/></g>
<g><path style="opacity:1" fill="#31877b" d="M 178.5,191.5 C 222.513,190.839 266.179,191.505 309.5,193.5C 265.736,192.838 222.069,192.172 178.5,191.5 Z"/></g>
<g><path style="opacity:1" fill="#19372f" d="M 53.5,190.5 C 64.4187,191.477 75.4187,191.81 86.5,191.5C 109.833,192.167 133.167,192.833 156.5,193.5C 155.791,194.404 154.791,194.737 153.5,194.5C 150.5,194.5 147.5,194.5 144.5,194.5C 144.5,196.5 144.5,198.5 144.5,200.5C 147.698,199.964 150.365,200.631 152.5,202.5C 146.198,204.037 142.864,201.704 142.5,195.5C 130.519,194.168 118.185,193.501 105.5,193.5C 92.9954,193.5 80.6621,193.833 68.5,194.5C 67.5269,196.948 67.1936,199.615 67.5,202.5C 64.8333,202.5 62.1667,202.5 59.5,202.5C 59.8064,199.615 59.4731,196.948 58.5,194.5C 55.3695,195.092 53.0361,194.092 51.5,191.5C 51.8417,190.662 52.5084,190.328 53.5,190.5 Z"/></g>
<g><path style="opacity:1" fill="#2b6457" d="M 68.5,194.5 C 80.6621,193.833 92.9954,193.5 105.5,193.5C 118.185,193.501 130.519,194.168 142.5,195.5C 142.167,195.5 141.833,195.5 141.5,195.5C 117.339,194.502 93.0057,194.169 68.5,194.5 Z"/></g>
<g><path style="opacity:1" fill="#4dc4b1" d="M 58.5,194.5 C 59.4731,196.948 59.8064,199.615 59.5,202.5C 62.1667,202.5 64.8333,202.5 67.5,202.5C 67.1936,199.615 67.5269,196.948 68.5,194.5C 93.0057,194.169 117.339,194.502 141.5,195.5C 117.167,195.5 92.8333,195.5 68.5,195.5C 68.5,198.167 68.5,200.833 68.5,203.5C 65.1667,203.5 61.8333,203.5 58.5,203.5C 58.5,200.5 58.5,197.5 58.5,194.5 Z"/></g>
<g><path style="opacity:1" fill="#48af9d" d="M 153.5,194.5 C 153.806,197.385 153.473,200.052 152.5,202.5C 150.365,200.631 147.698,199.964 144.5,200.5C 144.5,198.5 144.5,196.5 144.5,194.5C 147.5,194.5 150.5,194.5 153.5,194.5 Z"/></g>
<g><path style="opacity:1" fill="#5df3d8" d="M 145.5,195.5 C 147.167,195.5 148.833,195.5 150.5,195.5C 150.5,196.833 150.5,198.167 150.5,199.5C 148.833,199.5 147.167,199.5 145.5,199.5C 145.5,198.167 145.5,196.833 145.5,195.5 Z"/></g>
<g><path style="opacity:1" fill="#1b413a" d="M 402.5,132.5 C 402.5,156.167 402.5,179.833 402.5,203.5C 383.167,203.5 363.833,203.5 344.5,203.5C 353.986,202.506 363.652,202.173 373.5,202.5C 373.833,202.5 374.167,202.5 374.5,202.5C 383.5,202.5 392.5,202.5 401.5,202.5C 401.5,179.5 401.5,156.5 401.5,133.5C 401.5,132.833 401.833,132.5 402.5,132.5 Z"/></g>
<g><path style="opacity:1" fill="#36897a" d="M 402.5,132.5 C 403.498,156.328 403.831,180.328 403.5,204.5C 383.66,204.83 363.993,204.497 344.5,203.5C 363.833,203.5 383.167,203.5 402.5,203.5C 402.5,179.833 402.5,156.167 402.5,132.5 Z"/></g>
<g><path style="opacity:1" fill="#387e72" d="M 377.5,125.5 C 388.5,125.5 399.5,125.5 410.5,125.5C 411.351,153.496 411.517,181.496 411,209.5C 386.069,210.831 361.236,210.831 336.5,209.5C 336.153,189.473 336.487,172.806 337.5,159.5C 337.5,175.5 337.5,191.5 337.5,207.5C 361.5,207.5 385.5,207.5 409.5,207.5C 409.83,191.658 409.496,175.991 408.5,160.5C 409.144,149.116 408.477,138.116 406.5,127.5C 396.833,126.833 387.167,126.167 377.5,125.5 Z"/></g>
<g><path style="opacity:1" fill="#4fbdaa" d="M 337.5,159.5 C 337.833,159.5 338.167,159.5 338.5,159.5C 338.5,175.167 338.5,190.833 338.5,206.5C 361.833,206.5 385.167,206.5 408.5,206.5C 408.5,191.167 408.5,175.833 408.5,160.5C 409.496,175.991 409.83,191.658 409.5,207.5C 385.5,207.5 361.5,207.5 337.5,207.5C 337.5,191.5 337.5,175.5 337.5,159.5 Z"/></g>
<g><path style="opacity:1" fill="#357267" d="M 379.5,159.5 C 380.117,159.611 380.617,159.944 381,160.5C 381.499,165.823 381.666,171.156 381.5,176.5C 380.5,176.5 379.5,176.5 378.5,176.5C 378.635,170.819 378.968,165.152 379.5,159.5 Z"/></g>
<g><path style="opacity:1" fill="#2b6259" d="M 365.5,160.5 C 366.75,160.577 367.583,161.244 368,162.5C 368.824,165.882 368.657,169.216 367.5,172.5C 365.745,168.722 365.078,164.722 365.5,160.5 Z"/></g>
<g><path style="opacity:1" fill="#295e54" d="M 206.5,278.5 C 205.833,278.5 205.5,278.833 205.5,279.5C 180.922,254.754 156.422,229.754 132,204.5C 131.312,203.668 131.479,203.002 132.5,202.5C 157.627,227.624 182.294,252.957 206.5,278.5 Z"/></g>
<g><path style="opacity:1" fill="#224942" d="M 206.5,278.5 C 218.245,289.743 229.911,301.243 241.5,313C 242.094,313.464 242.761,313.631 243.5,313.5C 246.146,316.812 249.146,319.812 252.5,322.5C 252.709,323.922 253.209,325.255 254,326.5C 259.703,332.035 265.203,337.702 270.5,343.5C 270.5,344.167 270.167,344.5 269.5,344.5C 263.167,338.5 256.833,332.5 250.5,326.5C 247.167,323.5 243.833,320.5 240.5,317.5C 240.649,316.448 240.483,315.448 240,314.5C 228.298,302.965 216.798,291.298 205.5,279.5C 205.5,278.833 205.833,278.5 206.5,278.5 Z"/></g>
<g><path style="opacity:1" fill="#56f7d8" d="M 250.5,326.5 C 256.833,332.5 263.167,338.5 269.5,344.5C 271.461,346.963 273.628,349.297 276,351.5C 276.333,365.167 276.667,378.833 277,392.5C 279.937,393.817 282.77,393.817 285.5,392.5C 287.175,389.493 287.841,386.16 287.5,382.5C 309.5,382.5 331.5,382.5 353.5,382.5C 353.194,385.385 353.527,388.052 354.5,390.5C 354.47,391.497 354.97,392.164 356,392.5C 358.434,393.322 360.934,393.656 363.5,393.5C 363.366,391.708 363.699,390.042 364.5,388.5C 364.674,381.465 364.341,374.465 363.5,367.5C 363.34,365.847 362.674,364.514 361.5,363.5C 359.685,358.545 356.851,354.212 353,350.5C 352.828,343.654 352.328,336.987 351.5,330.5C 351.818,325.968 351.485,321.634 350.5,317.5C 345.025,316.511 339.358,316.178 333.5,316.5C 315.83,316.333 298.164,316.5 280.5,317C 279.663,318.011 279.33,319.178 279.5,320.5C 278.559,329.701 277.226,338.701 275.5,347.5C 274.421,345.457 272.754,344.124 270.5,343.5C 265.203,337.702 259.703,332.035 254,326.5C 253.209,325.255 252.709,323.922 252.5,322.5C 256.5,309.972 264.5,301.138 276.5,296C 303.5,295.333 330.5,295.333 357.5,296C 370.833,301.672 379.666,311.506 384,325.5C 391.702,350.705 391.035,375.705 382,400.5C 377.871,412.294 370.038,420.46 358.5,425C 330.5,425.667 302.5,425.667 274.5,425C 266.717,420.884 260.55,415.05 256,407.5C 246.849,387.838 243.516,367.172 246,345.5C 246.806,338.962 248.306,332.629 250.5,326.5 Z"/></g>
<g><path style="opacity:1" fill="#2b6056" d="M 333.5,316.5 C 329.03,317.486 324.363,317.819 319.5,317.5C 310.983,317.174 302.65,317.507 294.5,318.5C 290.167,318.5 285.833,318.5 281.5,318.5C 281.5,325.5 281.5,332.5 281.5,339.5C 280.833,333.5 280.167,327.5 279.5,321.5C 279.5,321.167 279.5,320.833 279.5,320.5C 279.33,319.178 279.663,318.011 280.5,317C 298.164,316.5 315.83,316.333 333.5,316.5 Z"/></g>
<g><path style="opacity:1" fill="#398276" d="M 333.5,316.5 C 339.358,316.178 345.025,316.511 350.5,317.5C 345.637,317.181 340.97,317.514 336.5,318.5C 330.642,318.822 324.975,318.489 319.5,317.5C 324.363,317.819 329.03,317.486 333.5,316.5 Z"/></g>
<g><path style="opacity:1" fill="#56f5d7" d="M 294.5,318.5 C 312.822,319.293 331.155,319.627 349.5,319.5C 349.5,325.833 349.5,332.167 349.5,338.5C 348.883,338.611 348.383,338.944 348,339.5C 347.503,341.81 347.337,344.143 347.5,346.5C 326.327,346.169 305.327,346.503 284.5,347.5C 282.528,338.56 281.861,329.227 282.5,319.5C 286.702,319.817 290.702,319.483 294.5,318.5 Z"/></g>
<g><path style="opacity:1" fill="#4fd1bb" d="M 294.5,318.5 C 302.65,317.507 310.983,317.174 319.5,317.5C 324.975,318.489 330.642,318.822 336.5,318.5C 341.032,318.182 345.366,318.515 349.5,319.5C 331.155,319.627 312.822,319.293 294.5,318.5 Z"/></g>
<g><path style="opacity:1" fill="#4ac5af" d="M 294.5,318.5 C 290.702,319.483 286.702,319.817 282.5,319.5C 281.861,329.227 282.528,338.56 284.5,347.5C 283.791,348.404 282.791,348.737 281.5,348.5C 281.5,345.5 281.5,342.5 281.5,339.5C 281.5,332.5 281.5,325.5 281.5,318.5C 285.833,318.5 290.167,318.5 294.5,318.5 Z"/></g>
<g><path style="opacity:1" fill="#25574c" d="M 336.5,318.5 C 340.97,317.514 345.637,317.181 350.5,317.5C 351.485,321.634 351.818,325.968 351.5,330.5C 350.676,334.312 350.176,338.312 350,342.5C 349.617,343.056 349.117,343.389 348.5,343.5C 349.038,341.883 349.371,340.216 349.5,338.5C 349.5,332.167 349.5,325.833 349.5,319.5C 345.366,318.515 341.032,318.182 336.5,318.5 Z"/></g>
<g><path style="opacity:1" fill="#275f53" d="M 338.5,326.5 C 340.68,328.031 341.68,330.198 341.5,333C 341.546,334.728 341.046,336.228 340,337.5C 338.763,333.94 338.263,330.273 338.5,326.5 Z"/></g>
<g><path style="opacity:1" fill="#2f7066" d="M 304.5,327.5 C 305.794,329.048 306.461,331.048 306.5,333.5C 306.167,335.5 305.833,337.5 305.5,339.5C 304.509,335.555 304.176,331.555 304.5,327.5 Z"/></g>
<g><path style="opacity:1" fill="#347e72" d="M 327.5,328.5 C 328.458,328.953 329.292,329.619 330,330.5C 330.821,333.554 330.655,336.554 329.5,339.5C 328.808,338.975 328.308,338.308 328,337.5C 327.502,334.518 327.335,331.518 327.5,328.5 Z"/></g>
<g><path style="opacity:1" fill="#357e6f" d="M 315.5,326.5 C 316.117,326.611 316.617,326.944 317,327.5C 317.667,331.5 317.667,335.5 317,339.5C 315.925,335.23 315.425,330.897 315.5,326.5 Z"/></g>
<g><path style="opacity:1" fill="#4ecbb4" d="M 279.5,320.5 C 279.5,320.833 279.5,321.167 279.5,321.5C 279.5,325.5 279.5,329.5 279.5,333.5C 278.833,338.681 278.167,344.015 277.5,349.5C 276.478,349.145 275.811,348.478 275.5,347.5C 277.226,338.701 278.559,329.701 279.5,320.5 Z"/></g>
<g><path style="opacity:1" fill="#368071" d="M 292.5,327.5 C 293.787,328.871 294.453,330.705 294.5,333C 294.167,334.833 293.833,336.667 293.5,338.5C 292.511,334.893 292.177,331.226 292.5,327.5 Z"/></g>
<g><path style="opacity:1" fill="#2a6157" d="M 279.5,333.5 C 279.663,344.062 278.997,354.562 277.5,365C 277.502,368.021 277.836,370.854 278.5,373.5C 278.5,379.5 278.5,385.5 278.5,391.5C 280.167,391.5 281.833,391.5 283.5,391.5C 283.842,392.338 284.508,392.672 285.5,392.5C 282.77,393.817 279.937,393.817 277,392.5C 276.667,378.833 276.333,365.167 276,351.5C 273.628,349.297 271.461,346.963 269.5,344.5C 270.167,344.5 270.5,344.167 270.5,343.5C 272.754,344.124 274.421,345.457 275.5,347.5C 275.811,348.478 276.478,349.145 277.5,349.5C 278.167,344.015 278.833,338.681 279.5,333.5 Z"/></g>
<g><path style="opacity:1" fill="#172e29" d="M 279.5,321.5 C 280.167,327.5 280.833,333.5 281.5,339.5C 281.5,342.5 281.5,345.5 281.5,348.5C 282.791,348.737 283.791,348.404 284.5,347.5C 305.833,347.5 327.167,347.5 348.5,347.5C 348.5,346.167 348.5,344.833 348.5,343.5C 349.117,343.389 349.617,343.056 350,342.5C 350.176,338.312 350.676,334.312 351.5,330.5C 352.328,336.987 352.828,343.654 353,350.5C 356.851,354.212 359.685,358.545 361.5,363.5C 358.663,365.402 355.329,366.069 351.5,365.5C 343.5,365.5 335.5,365.5 327.5,365.5C 331.5,364.833 335.5,364.167 339.5,363.5C 345.833,363.5 352.167,363.5 358.5,363.5C 358.771,361.62 358.104,360.287 356.5,359.5C 356.167,358.5 355.5,357.833 354.5,357.5C 354.5,356.833 354.167,356.5 353.5,356.5C 330.5,355.833 307.5,355.167 284.5,354.5C 291.833,354.5 299.167,354.5 306.5,354.5C 321.883,354.918 337.216,354.418 352.5,353C 351.956,352.283 351.289,351.783 350.5,351.5C 350.389,350.883 350.056,350.383 349.5,350C 327.494,348.141 305.494,348.141 283.5,350C 281.085,351.465 280.085,353.632 280.5,356.5C 280.833,357.167 281.167,357.833 281.5,358.5C 281.5,358.833 281.5,359.167 281.5,359.5C 279.468,360.048 278.468,361.381 278.5,363.5C 284.167,363.5 289.833,363.5 295.5,363.5C 298.833,364.167 302.167,364.833 305.5,365.5C 296.651,365.174 287.984,365.507 279.5,366.5C 279.5,368.833 279.5,371.167 279.5,373.5C 279.167,373.5 278.833,373.5 278.5,373.5C 277.836,370.854 277.502,368.021 277.5,365C 278.997,354.562 279.663,344.062 279.5,333.5C 279.5,329.5 279.5,325.5 279.5,321.5 Z"/></g>
<g><path style="opacity:1" fill="#32766b" d="M 350.5,351.5 C 351.289,351.783 351.956,352.283 352.5,353C 337.216,354.418 321.883,354.918 306.5,354.5C 321.176,353.66 335.842,352.66 350.5,351.5 Z"/></g>
<g><path style="opacity:1" fill="#53e1c7" d="M 350.5,351.5 C 335.842,352.66 321.176,353.66 306.5,354.5C 299.167,354.5 291.833,354.5 284.5,354.5C 283.167,355.167 281.833,355.833 280.5,356.5C 280.085,353.632 281.085,351.465 283.5,350C 305.494,348.141 327.494,348.141 349.5,350C 350.056,350.383 350.389,350.883 350.5,351.5 Z"/></g>
<g><path style="opacity:1" fill="#42a795" d="M 349.5,338.5 C 349.371,340.216 349.038,341.883 348.5,343.5C 348.5,344.833 348.5,346.167 348.5,347.5C 327.167,347.5 305.833,347.5 284.5,347.5C 305.327,346.503 326.327,346.169 347.5,346.5C 347.337,344.143 347.503,341.81 348,339.5C 348.383,338.944 348.883,338.611 349.5,338.5 Z"/></g>
<g><path style="opacity:1" fill="#3b9485" d="M 284.5,354.5 C 307.5,355.167 330.5,355.833 353.5,356.5C 329.604,355.859 305.937,356.526 282.5,358.5C 282.167,358.5 281.833,358.5 281.5,358.5C 281.167,357.833 280.833,357.167 280.5,356.5C 281.833,355.833 283.167,355.167 284.5,354.5 Z"/></g>
<g><path style="opacity:1" fill="#57f6d8" d="M 353.5,356.5 C 354.167,356.5 354.5,356.833 354.5,357.5C 354.414,358.496 354.748,359.329 355.5,360C 334.2,361.584 312.866,361.918 291.5,361C 288.008,361.07 285.008,360.237 282.5,358.5C 305.937,356.526 329.604,355.859 353.5,356.5 Z"/></g>
<g><path style="opacity:1" fill="#51d3bc" d="M 354.5,357.5 C 355.5,357.833 356.167,358.5 356.5,359.5C 356.119,360.931 355.119,361.764 353.5,362C 331.167,362.667 308.833,362.667 286.5,362C 284.256,361.95 282.589,361.117 281.5,359.5C 281.5,359.167 281.5,358.833 281.5,358.5C 281.833,358.5 282.167,358.5 282.5,358.5C 285.008,360.237 288.008,361.07 291.5,361C 312.866,361.918 334.2,361.584 355.5,360C 354.748,359.329 354.414,358.496 354.5,357.5 Z"/></g>
<g><path style="opacity:1" fill="#3e9082" d="M 281.5,359.5 C 282.589,361.117 284.256,361.95 286.5,362C 308.833,362.667 331.167,362.667 353.5,362C 355.119,361.764 356.119,360.931 356.5,359.5C 358.104,360.287 358.771,361.62 358.5,363.5C 352.167,363.5 345.833,363.5 339.5,363.5C 324.833,363.5 310.167,363.5 295.5,363.5C 289.833,363.5 284.167,363.5 278.5,363.5C 278.468,361.381 279.468,360.048 281.5,359.5 Z"/></g>
<g><path style="opacity:1" fill="#2e635a" d="M 295.5,363.5 C 310.167,363.5 324.833,363.5 339.5,363.5C 335.5,364.167 331.5,364.833 327.5,365.5C 320.167,365.5 312.833,365.5 305.5,365.5C 302.167,364.833 298.833,364.167 295.5,363.5 Z"/></g>
<g><path style="opacity:1" fill="#2c685d" d="M 361.5,363.5 C 362.674,364.514 363.34,365.847 363.5,367.5C 362.883,367.389 362.383,367.056 362,366.5C 361.505,368.473 361.338,370.473 361.5,372.5C 360.539,370.735 360.205,368.735 360.5,366.5C 357.287,366.81 354.287,366.477 351.5,365.5C 355.329,366.069 358.663,365.402 361.5,363.5 Z"/></g>
<g><path style="opacity:1" fill="#57f9d9" d="M 279.5,366.5 C 306.172,366.506 332.838,366.84 359.5,367.5C 359.83,374.532 359.497,381.532 358.5,388.5C 357.516,385.572 357.183,382.572 357.5,379.5C 334.793,379.37 312.126,379.37 289.5,379.5C 287.5,379.833 285.5,380.167 283.5,380.5C 282.593,383.421 282.26,386.421 282.5,389.5C 281.5,389.5 280.5,389.5 279.5,389.5C 279.5,384.167 279.5,378.833 279.5,373.5C 279.5,371.167 279.5,368.833 279.5,366.5 Z"/></g>
<g><path style="opacity:1" fill="#142721" d="M 363.5,367.5 C 364.341,374.465 364.674,381.465 364.5,388.5C 362.859,383.749 361.859,378.749 361.5,373.5C 361.5,373.167 361.5,372.833 361.5,372.5C 361.338,370.473 361.505,368.473 362,366.5C 362.383,367.056 362.883,367.389 363.5,367.5 Z"/></g>
<g><path style="opacity:1" fill="#53d8c1" d="M 279.5,366.5 C 287.984,365.507 296.651,365.174 305.5,365.5C 312.833,365.5 320.167,365.5 327.5,365.5C 335.5,365.5 343.5,365.5 351.5,365.5C 354.287,366.477 357.287,366.81 360.5,366.5C 360.205,368.735 360.539,370.735 361.5,372.5C 361.5,372.833 361.5,373.167 361.5,373.5C 361.5,379.5 361.5,385.5 361.5,391.5C 360.07,391.579 358.736,391.246 357.5,390.5C 356.513,387.232 356.18,383.898 356.5,380.5C 332.5,380.5 308.5,380.5 284.5,380.5C 284.815,384.371 284.482,388.038 283.5,391.5C 281.833,391.5 280.167,391.5 278.5,391.5C 278.5,385.5 278.5,379.5 278.5,373.5C 278.833,373.5 279.167,373.5 279.5,373.5C 279.5,378.833 279.5,384.167 279.5,389.5C 280.5,389.5 281.5,389.5 282.5,389.5C 282.26,386.421 282.593,383.421 283.5,380.5C 285.5,380.167 287.5,379.833 289.5,379.5C 312.126,379.37 334.793,379.37 357.5,379.5C 357.183,382.572 357.516,385.572 358.5,388.5C 359.497,381.532 359.83,374.532 359.5,367.5C 332.838,366.84 306.172,366.506 279.5,366.5 Z"/></g>
<g><path style="opacity:1" fill="#1f453e" d="M 361.5,373.5 C 361.859,378.749 362.859,383.749 364.5,388.5C 363.699,390.042 363.366,391.708 363.5,393.5C 360.934,393.656 358.434,393.322 356,392.5C 354.97,392.164 354.47,391.497 354.5,390.5C 354.5,387.5 354.5,384.5 354.5,381.5C 331.833,381.5 309.167,381.5 286.5,381.5C 286.448,385.198 286.114,388.865 285.5,392.5C 284.508,392.672 283.842,392.338 283.5,391.5C 284.482,388.038 284.815,384.371 284.5,380.5C 308.5,380.5 332.5,380.5 356.5,380.5C 356.18,383.898 356.513,387.232 357.5,390.5C 358.736,391.246 360.07,391.579 361.5,391.5C 361.5,385.5 361.5,379.5 361.5,373.5 Z"/></g>
<g><path style="opacity:1" fill="#42ab97" d="M 354.5,390.5 C 353.527,388.052 353.194,385.385 353.5,382.5C 331.5,382.5 309.5,382.5 287.5,382.5C 287.841,386.16 287.175,389.493 285.5,392.5C 286.114,388.865 286.448,385.198 286.5,381.5C 309.167,381.5 331.833,381.5 354.5,381.5C 354.5,384.5 354.5,387.5 354.5,390.5 Z"/></g>
</svg>
